<?xml version="1.0" encoding="UTF-8" standalone="no"?>
<!-- Created with Inkscape (http://www.inkscape.org/) -->

<svg
   width="800"
   height="1200"
   viewBox="0 0 211.66666 317.5"
   version="1.1"
   id="svg1"
   inkscape:version="1.4.2 (f4327f4, 2025-05-13)"
   sodipodi:docname="image-4-dark.svg"
   xmlns:inkscape="http://www.inkscape.org/namespaces/inkscape"
   xmlns:sodipodi="http://sodipodi.sourceforge.net/DTD/sodipodi-0.dtd"
   xmlns:xlink="http://www.w3.org/1999/xlink"
   xmlns="http://www.w3.org/2000/svg"
   xmlns:svg="http://www.w3.org/2000/svg">
  <sodipodi:namedview
     id="namedview1"
     pagecolor="#505050"
     bordercolor="#eeeeee"
     borderopacity="1"
     inkscape:showpageshadow="0"
     inkscape:pageopacity="0"
     inkscape:pagecheckerboard="0"
     inkscape:deskcolor="#505050"
     inkscape:document-units="mm"
     inkscape:zoom="0.48189506"
     inkscape:cx="184.68751"
     inkscape:cy="378.71316"
     inkscape:window-width="1920"
     inkscape:window-height="1009"
     inkscape:window-x="-8"
     inkscape:window-y="-8"
     inkscape:window-maximized="1"
     inkscape:current-layer="layer1" />
  <defs
     id="defs1">
    <pattern
       inkscape:collect="always"
       xlink:href="#pattern7"
       preserveAspectRatio="xMidYMid"
       id="pattern18"
       patternTransform="matrix(1.3,0,0,1.3,-388.99997,411.99999)"
       x="0"
       y="0" />
    <pattern
       patternUnits="userSpaceOnUse"
       width="43.950009"
       height="26.000013"
       patternTransform="translate(-763.99997,693.99999)"
       preserveAspectRatio="xMidYMid"
       id="pattern1"
       inkscape:label="pattern1">
      <path
         d="M 9.9999874,10.000025 C 9.9999874,7.790022 8.2100031,6 6,6 2.6859969,6 0,3.3140031 0,0 h 2.0000126 c 0,2.2100031 1.7899843,4.0000252 3.9999874,4.0000252 3.3140031,0 6,2.6859968 6,5.9999998 0,2.210003 1.789984,3.999988 3.999987,3.999988 3.314004,0 6,2.685996 6,6 0,2.210003 1.790022,3.999987 3.999988,3.999987 v 2.000013 c -3.313966,0 -5.999962,-2.685997 -5.999962,-6 0,-2.210004 -1.790022,-3.999988 -4.000026,-3.999988 -3.314003,0 -5.9999996,-2.685997 -5.9999996,-6 z M 35.463987,8.0500157 43.950009,16.536 42.536013,17.949997 34.049991,9.4640126 Z"
         id="path9"
         style="fill:#fafafa;fill-opacity:1;fill-rule:evenodd;stroke-width:0.999999" />
    </pattern>
    <pattern
       patternUnits="userSpaceOnUse"
       width="43.949994"
       height="26.000013"
       patternTransform="translate(-388.99997,411.99999)"
       preserveAspectRatio="xMidYMid"
       id="pattern7"
       inkscape:label="pattern7">
      <path
         d="M 9.9999874,10.000025 C 9.9999874,7.790022 8.2100031,6 6,6 2.6859969,6 0,3.3140031 0,0 h 2.0000126 c 0,2.2100031 1.7899843,4.0000252 3.9999874,4.0000252 3.3140031,0 5.999992,2.6859968 5.999992,5.9999998 0,2.210003 1.789985,3.999988 3.999988,3.999988 3.314003,0 6,2.685996 6,6 0,2.210003 1.790022,3.999987 4.00001,3.999987 v 2.000013 c -3.313988,0 -5.999985,-2.685997 -5.999985,-6 0,-2.210004 -1.790022,-3.999988 -4.000025,-3.999988 -3.314003,0 -5.9999926,-2.685997 -5.9999926,-6 z M 35.463991,8.0500157 43.949994,16.536 l -1.414,1.414035 -8.486003,-8.4860224 z"
         id="path1-7"
         style="fill:#171717;fill-opacity:1;fill-rule:evenodd;stroke-width:0.999999" />
    </pattern>
  </defs>
  <g
     inkscape:label="Layer 1"
     inkscape:groupmode="layer"
     id="layer1">
    <rect
       style="fill:#1e1e1e;stroke-width:0.264999;fill-opacity:1"
       id="rect1"
       width="211.66666"
       height="317.5"
       x="0"
       y="0" />
    <rect
       style="stroke:none;fill:url(#pattern1)"
       transform="scale(0.26458333)"
       width="43.950009"
       height="26.000013"
       x="-763.99997"
       y="693.99999"
       id="rect2" />
    <rect
       style="fill:url(#pattern18);stroke-width:0.264999;fill-opacity:1"
       id="rect3"
       width="211.66666"
       height="317.5"
       x="0"
       y="0" />
    <rect
       style="stroke:none;fill:url(#pattern7)"
       transform="scale(0.26458333)"
       width="43.949994"
       height="26.000013"
       x="-388.99997"
       y="411.99999"
       id="rect7" />
  </g>
</svg>
